<svg xmlns="http://www.w3.org/2000/svg" version="1.1" xmlns:xlink="http://www.w3.org/1999/xlink" xmlns:svgjs="http://svgjs.dev/svgjs" width="1000" height="946" viewBox="0 0 1000 946"><g transform="matrix(1,0,0,1,-1.469798657717888,-1.3384893617019316)"><svg viewBox="0 0 149 141" data-background-color="#0a1627" preserveAspectRatio="xMidYMid meet" height="946" width="1000" xmlns="http://www.w3.org/2000/svg" xmlns:xlink="http://www.w3.org/1999/xlink"><g id="tight-bounds" transform="matrix(1,0,0,1,0.21899999999996567,0.19949999999997203)"><svg viewBox="0 0 148.56166848000004 140.60052000000002" height="140.60052000000002" width="148.56166848000004"><g><svg viewBox="0 0 148.56166848000004 140.60052000000002" height="140.60052000000002" width="148.56166848000004"><g><svg viewBox="0 0 148.56166848000004 140.60052000000002" height="140.60052000000002" width="148.56166848000004"><g><path d="M0 140.601v-140.601h148.562v140.601z" fill="#fe0039" stroke="transparent" stroke-width="0" rx="0%" data-fill-palette-color="tertiary"></path><path d="M3.283 137.317v-134.034h141.995v134.034z" fill="#0a1627" stroke="transparent" stroke-width="0" rx="0%" data-fill-palette-color="quaternary"></path><path d="M9.85 130.751v-120.901h128.862v120.901z" fill="#fe0039" stroke="transparent" stroke-width="0" data-fill-palette-color="tertiary"></path></g><g transform="matrix(1,0,0,1,19.699740000000006,19.69974)" id="textblocktransform"><svg viewBox="0 0 109.16218848000003 101.20104000000002" height="101.20104000000002" width="109.16218848000003" id="textblock"><g><svg viewBox="0 0 109.16218848000003 101.20104000000002" height="101.20104000000002" width="109.16218848000003"><g transform="matrix(1,0,0,1,0,0)"><svg width="109.16218848000003" viewBox="3.25 -37.5 40.45000076293945 37.5" height="101.20104000000002" data-palette-color="#0a1627"><path d="M17.55-14.15L17.55-17.7 10.5-17.7 10.5-3.4 13.75-3.4 13.75 0 3.25 0 3.25-3.4 6.4-3.4 6.4-34.1 3.25-34.1 3.25-37.5 26.7-37.5 26.7-28.25 23.3-28.25 23.3-34.1 10.5-34.1 10.5-21.1 17.55-21.1 17.55-24.65 20.95-24.65 20.95-14.15 17.55-14.15ZM40.45-34.1L40.45-3.4 43.7-3.4 43.7 0 33.2 0 33.2-3.4 36.35-3.4 36.35-34.1 33.2-34.1 33.2-37.5 43.7-37.5 43.7-34.1 40.45-34.1Z" opacity="1" transform="matrix(1,0,0,1,0,0)" fill="#0a1627" class="wordmark-text-0" data-fill-palette-color="quaternary" id="text-0"></path></svg></g></svg></g></svg></g></svg></g><g></g></svg></g><defs></defs></svg><rect width="148.56166848000004" height="140.60052000000002" fill="none" stroke="none" visibility="hidden"></rect></g></svg></g></svg>